<svg width="14" height="14" viewBox="0 0 14 14" fill="none" xmlns="http://www.w3.org/2000/svg">
<path d="M4 1.1698L4.51885 0.314934L4 2.55891e-05L3.48115 0.314934L4 1.1698ZM7 2.99061L6.48115 3.84547L7 4.16038L7.51885 3.84547L7 2.99061ZM1 2.99061L0.481151 2.13574L0 2.42777V2.99061H1ZM1 6.89234H0V7.35387L0.351203 7.6533L1 6.89234ZM7 12.0079L6.3512 12.7689L7 13.3221L7.6488 12.7689L7 12.0079ZM13 6.89234L13.6488 7.6533L14 7.35387V6.89234H13ZM13 2.99061H14V2.42777L13.5188 2.13574L13 2.99061ZM10 1.1698L10.5189 0.314934L10 2.55891e-05L9.48115 0.314934L10 1.1698ZM4 1.1698L3.48115 2.02467L6.48115 3.84547L7 2.99061L7.51885 2.13574L4.51885 0.314934L4 1.1698ZM1 2.99061L1.51885 3.84547L4.51885 2.02467L4 1.1698L3.48115 0.314934L0.481151 2.13574L1 2.99061ZM1 6.89234H2V2.99061H1H0V6.89234H1ZM7 12.0079L7.6488 11.247L1.6488 6.13138L1 6.89234L0.351203 7.6533L6.3512 12.7689L7 12.0079ZM7 12.0079L7.6488 12.7689L13.6488 7.6533L13 6.89234L12.3512 6.13138L6.3512 11.247L7 12.0079ZM13 6.89234H14V2.99061H13H12V6.89234H13ZM13 2.99061L13.5188 2.13574L10.5189 0.314934L10 1.1698L9.48115 2.02467L12.4812 3.84547L13 2.99061ZM10 1.1698L9.48115 0.314934L6.48115 2.13574L7 2.99061L7.51885 3.84547L10.5189 2.02467L10 1.1698Z" fill="white"/>
</svg>
